<?xml version="1.0" encoding="utf-8"?>
<!-- Generator: Adobe Illustrator 25.1.0, SVG Export Plug-In . SVG Version: 6.00 Build 0)  -->
<svg version="1.1" id="Layer_1" xmlns="http://www.w3.org/2000/svg" xmlns:xlink="http://www.w3.org/1999/xlink" x="0px" y="0px"
	 viewBox="0 0 80 80" style="enable-background:new 0 0 80 80;" xml:space="preserve">
<style type="text/css">
	.st0{fill:#666666;}
</style>
<path class="st0" d="M73.6,19.9H6.4c-1.2,0-2.1-0.9-2.1-2.1v-14c0-1.2,0.9-2.1,2.1-2.1h67.2c1.2,0,2.1,0.9,2.1,2.1v14
	C75.7,19,74.8,19.9,73.6,19.9z"/>
<path class="st0" d="M73.6,49H6.4c-1.2,0-2.1-0.9-2.1-2.1v-14c0-1.2,0.9-2.1,2.1-2.1h67.2c1.2,0,2.1,0.9,2.1,2.1v14
	C75.7,48.1,74.8,49,73.6,49z"/>
<path class="st0" d="M73.6,78.1H6.4c-1.2,0-2.1-0.9-2.1-2.1v-14c0-1.2,0.9-2.1,2.1-2.1h67.2c1.2,0,2.1,0.9,2.1,2.1v14
	C75.7,77.2,74.8,78.1,73.6,78.1z"/>
</svg>
